<svg width="48" height="46" viewBox="0 0 48 46" fill="none" xmlns="http://www.w3.org/2000/svg">
<circle cx="21" cy="25" r="14" fill="#F94747"/>
<path d="M47.4126 6.57143C46.1123 2.68832 42.5113 0 38.4102 0C35.7095 0 33.5089 1.49352 32.2086 2.7879C31.5084 2.58876 30.9083 2.48918 30.3081 2.48918C29.3078 2.48918 28.6077 2.7879 28.5076 2.88747L28.2075 3.08659L28.0075 3.3853L26.7071 5.47619C24.8066 4.87879 22.8061 4.58009 20.8056 4.58009C9.30248 4.58009 0 13.8398 0 25.2901C0 36.7403 9.30248 46 20.8056 46C32.3086 46 41.6111 36.7403 41.6111 25.2901C41.6111 23.697 41.4111 22.1039 41.011 20.5108C41.6111 19.8139 42.4113 19.0173 43.5116 18.2208C47.5127 15.2338 48.913 10.8528 47.4126 6.57143ZM41.7111 17.9221C41.6111 17.9221 41.6111 18.0216 41.5111 18.0216C41.211 18.2208 41.0109 18.5195 40.7108 18.7186C40.7108 18.7186 40.7109 18.7186 40.6108 18.8182C40.4108 19.0173 40.1107 19.316 40.0107 19.5152C39.8106 19.7143 39.6106 20.013 39.5106 20.2121C38.8104 21.3074 38.5103 22.2035 38.4102 22.9004C38.0101 22.5022 37.41 22.2035 36.7098 22.2035C36.1096 22.2035 35.5095 22.5022 35.1094 22.9004C35.2094 21.5065 35.6095 19.4156 38.1102 16.8269C38.4102 16.5282 38.8103 16.1299 39.2104 15.8312C39.3105 15.8312 39.3105 15.7316 39.4105 15.7316C39.8106 15.4329 40.2107 15.0346 40.7108 14.6364C43.0115 12.8442 43.8117 10.4546 43.0115 8.16451C42.3113 6.0736 40.5108 4.67966 38.5103 4.67966C38.3102 4.67966 38.0102 4.67967 37.8101 4.77924C37.7101 4.77924 37.51 4.87879 37.41 4.97835C37.3099 4.97835 37.2099 5.07793 37.1099 5.07793C36.9098 5.17749 36.7098 5.27708 36.5098 5.37665C36.5098 5.37665 36.4097 5.37662 36.4097 5.47619C36.3097 5.57576 36.2097 5.67534 36.1096 5.77491C35.7095 5.37664 35.2094 5.07793 34.6092 4.67966C34.1091 4.38096 33.709 4.18182 33.2088 3.98268C33.3089 3.88312 33.4089 3.78357 33.4089 3.78357C33.4089 3.78357 33.4089 3.78356 33.509 3.68399C33.709 3.58443 33.809 3.3853 34.0091 3.28573L34.1091 3.18616C34.3092 3.08659 34.4092 2.98703 34.6092 2.7879C34.7093 2.7879 34.7093 2.68832 34.8093 2.68832C35.0094 2.58876 35.1094 2.4892 35.3094 2.38963C35.4095 2.29007 35.5095 2.29005 35.6095 2.19049C35.7095 2.09092 35.9096 2.09091 36.0096 1.99134C36.1097 1.89177 36.3097 1.8918 36.4097 1.8918C36.5097 1.8918 36.6098 1.79223 36.8098 1.79223C37.0099 1.79223 37.1099 1.69265 37.31 1.69265C37.41 1.69265 37.51 1.69265 37.61 1.59308C37.9101 1.59308 38.2102 1.49351 38.4102 1.49351C41.8111 1.49351 44.912 3.78356 46.0123 7.16884C47.3127 10.8528 46.0123 14.6364 42.6114 17.3247C42.3113 17.4243 42.0112 17.7229 41.7111 17.9221ZM38.4102 24.5931C38.4102 25.4892 37.7101 26.1862 36.8098 26.1862C35.9096 26.1862 35.2094 25.4892 35.2094 24.5931C35.2094 23.697 35.9096 23 36.8098 23C37.7101 23 38.4102 23.697 38.4102 24.5931ZM35.8096 11.948C33.709 9.55844 30.9083 7.66666 27.8074 6.47186L29.2078 4.08226C29.2078 4.08226 29.6079 3.88314 30.3081 3.88314C30.9083 3.88314 31.6084 3.98271 32.6087 4.38098C33.1088 4.58011 33.6089 4.77923 34.2091 5.1775C34.7092 5.4762 35.2094 5.7749 35.5095 6.17317C37.41 7.76624 37.51 9.06061 37.51 9.06061L35.8096 11.948ZM38.8104 9.75759L39.0104 9.35933V8.86149C39.0104 8.66236 38.8103 7.56712 37.71 6.27274C38.0101 6.07361 38.3102 5.97402 38.5103 5.97402C39.9107 5.97402 41.211 6.9697 41.7111 8.56277C42.3113 10.2554 41.7111 12.0476 39.9106 13.5411C39.5105 13.8398 39.1104 14.2381 38.7103 14.5368C38.3102 13.8398 37.8101 13.1429 37.31 12.4459L38.8104 9.75759ZM20.9056 44.6061C10.2027 44.6061 1.5004 35.9437 1.5004 25.2901C1.5004 14.6364 10.2027 5.97402 20.9056 5.97402C23.2062 5.97402 25.4068 6.3723 27.4073 7.06927C27.4073 7.06927 29.5079 7.66667 31.6084 9.06061C33.709 10.4545 35.4094 12.4459 35.4094 12.4459C36.4097 13.5411 37.2099 14.7359 37.8101 16.0303C34.4092 19.4156 34.4092 22.1039 34.4092 23.4978V23.7966V24.4935C34.4092 25.7879 35.5094 26.7836 36.7098 26.7836C37.9101 26.7836 39.0104 25.7879 39.0104 24.4935V23.7966C39.0104 23.0996 39.0104 22.2035 39.6106 21.1082C39.9106 22.4026 40.1107 23.7965 40.1107 25.1905C40.2107 36.0433 31.6084 44.6061 20.9056 44.6061Z" fill="#E5E5E5"/>
</svg>
