<svg width="45" height="48" viewBox="0 0 45 48" fill="none" xmlns="http://www.w3.org/2000/svg">
<circle cx="22" cy="24" r="14" fill="#F94747"/>
<path d="M42.707 9.72049L45 7.38758H41.7516H40.8917C41.1783 6.99876 41.3694 6.51271 41.3694 6.02669C41.3694 4.76302 40.3185 3.69378 39.0764 3.69378C38.5987 3.69378 38.121 3.88819 37.7388 4.1798V3.30496V0L35.4459 2.33291L32.7707 5.05464C29.4267 3.01334 25.6051 1.84689 21.5924 1.84689C9.64971 1.84689 0 11.6646 0 23.8152V26.537C0 38.6876 9.55416 48 21.4013 48C33.3439 48 43.1847 38.6876 43.1847 26.537V23.8152C43.1847 19.7326 42.1338 15.8444 40.0318 12.4422L42.707 9.72049ZM41.7516 8.74844L38.2165 12.345L36.3057 14.2891H33.2484L38.6942 8.74844H41.7516ZM38.4076 5.34627C38.5987 5.15186 38.7898 5.05464 39.0764 5.05464C39.5541 5.05464 40.0318 5.44346 40.0318 6.02669C40.0318 6.3183 39.9363 6.51273 39.7452 6.70714C39.5541 6.90155 39.3631 6.99874 39.0764 6.99874C38.5987 6.99874 38.121 6.60992 38.121 6.02669C38.121 5.73507 38.2165 5.54068 38.4076 5.34627ZM37.4522 6.22111C37.5478 6.90154 38.121 7.48477 38.7898 7.58197L37.6433 8.74844L24.8407 21.7739C24.4586 21.1907 24.0765 20.7046 23.5032 20.413L36.3057 7.38758L37.4522 6.22111ZM21.4968 27.995C23.6942 27.995 25.5095 26.1481 25.5095 23.9124C25.5095 23.4264 25.414 22.8432 25.2229 22.4543L29.4267 18.1773C30.5732 19.8298 31.242 21.7739 31.242 23.9124C31.242 29.4531 26.8471 33.9245 21.4013 33.9245C15.9554 33.9245 11.5605 29.4531 11.5605 23.9124C11.5605 18.3717 15.9554 13.9003 21.4013 13.9003C23.5032 13.9003 25.414 14.5807 27.0382 15.7472L22.8344 20.0242C22.3567 19.8298 21.879 19.7326 21.4013 19.7326C19.2038 19.7326 17.3885 21.5795 17.3885 23.8152C17.3885 26.0509 19.2038 27.995 21.4968 27.995ZM36.3057 3.30496V6.41553L30.8598 11.9562V8.84566L36.3057 3.30496ZM40.414 16.5248C40.6051 17.0109 40.7006 17.3997 40.8917 17.8857C40.8917 17.9829 40.8917 17.9829 40.8917 18.0801C40.9872 18.4689 41.0828 18.955 41.1783 19.3438C41.1783 19.441 41.1783 19.6354 41.2739 19.7326C41.3694 20.1214 41.465 20.413 41.465 20.8019C41.465 20.9963 41.5605 21.2879 41.5605 21.4823C41.5605 21.7739 41.6561 21.9683 41.6561 22.2599C41.6561 22.746 41.7516 23.3292 41.7516 23.8152C41.7516 35.1882 32.6751 44.4226 21.4968 44.4226C10.3185 44.4226 1.24203 35.1882 1.24203 23.8152C1.24203 15.2611 6.30572 7.97081 13.6624 4.86025C16.0509 3.79099 18.7261 3.20775 21.5924 3.20775C22.0701 3.20775 22.6433 3.20776 23.121 3.30496C23.4076 3.30496 23.5987 3.40217 23.8853 3.40217C24.0764 3.40217 24.363 3.40218 24.5541 3.49938C24.9363 3.59659 25.2229 3.59657 25.6051 3.69378C25.7006 3.69378 25.8917 3.69378 25.9873 3.79099C26.3694 3.88819 26.8471 3.98538 27.2293 4.08259H27.3249C29.0446 4.66582 30.7643 5.44348 32.293 6.41553L30.4777 8.26242L30.2866 8.45681V8.74844V11.6646C27.8025 9.8177 24.8407 8.74844 21.4968 8.74844C13.2802 8.74844 6.59237 15.5528 6.59237 23.9124C6.59237 32.272 13.2802 39.0764 21.4968 39.0764C29.7134 39.0764 36.4013 32.272 36.4013 23.9124C36.4013 20.6075 35.3503 17.4969 33.535 14.9696H36.4013H36.6879L36.879 14.7751L38.6942 12.9282C39.363 14.0947 39.9363 15.2612 40.414 16.5248Z" fill="#E5E5E5"/>
</svg>
