<svg width="46" height="46" viewBox="0 0 46 46" fill="none" xmlns="http://www.w3.org/2000/svg">
<circle cx="23" cy="23" r="14" fill="#F94747"/>
<path d="M41.9724 10.0835C42.2592 9.69937 42.4504 9.21921 42.4504 8.64301C42.4504 7.97077 42.1636 7.39457 41.7812 6.9144L39.1041 4.22546C38.6261 3.7453 38.0524 3.55323 37.3832 3.55323C36.9051 3.55323 36.4271 3.7453 35.949 4.0334C32.1247 1.4405 27.631 0 22.9462 0C18.3569 0 13.7677 1.44051 10.0389 3.93738C9.65651 3.64928 9.17847 3.55323 8.70042 3.55323C8.03116 3.55323 7.45749 3.84133 6.97944 4.22546L4.3024 6.9144C3.44192 7.7787 3.34632 9.02713 4.01558 9.98747C-1.33853 17.7662 -1.33853 28.1378 4.01558 36.0125C3.44193 36.9729 3.53753 38.2213 4.39801 38.9896L7.07506 41.6785C7.5531 42.1587 8.12677 42.3507 8.79604 42.3507C9.27408 42.3507 9.65651 42.2547 10.0389 41.9666C13.8633 44.5595 18.4526 46 23.0418 46C27.7266 46 32.3159 44.5595 36.1402 41.8706C36.5227 42.1587 37.0007 42.2547 37.3832 42.2547C38.0524 42.2547 38.6261 41.9666 39.1041 41.5825L41.7812 38.8935C42.6417 38.0292 42.7373 36.7808 42.068 35.8205C47.3265 28.1378 47.3265 17.7662 41.9724 10.0835ZM40.6339 35.4363L34.5149 29.2902C34.4193 29.1942 34.4193 29.1942 34.3237 29.1942C36.4271 25.2568 36.4271 20.5511 34.3237 16.7098C34.4193 16.6138 34.5149 16.6138 34.5149 16.5178L40.5382 10.4676C45.988 17.9582 45.988 27.9457 40.6339 35.4363ZM40.7295 38.0292L38.0524 40.7182C37.8612 40.9102 37.5744 41.0063 37.2875 41.0063C37.0007 41.0063 36.7139 40.9102 36.5227 40.7182L36.0446 40.238L29.9256 34.0919C29.5432 33.7077 29.5432 33.0355 29.9256 32.6514L32.6027 29.9624C32.7939 29.7704 33.0807 29.6743 33.3676 29.6743C33.6544 29.6743 33.8456 29.7704 34.0368 29.9624L40.2514 36.2046L40.7295 36.6848C41.2075 36.9729 41.2075 37.5491 40.7295 38.0292ZM28.3003 33.4196C26.6749 34.2839 24.8584 34.6681 23.0418 34.6681C21.2252 34.6681 19.4086 34.2839 17.7833 33.4196C17.8789 32.7474 17.5921 32.0751 17.114 31.4989L14.437 28.81C13.9589 28.3299 13.3853 28.1378 12.716 28.1378C12.6204 28.1378 12.5248 28.1378 12.5248 28.1378C10.8994 24.8726 10.995 20.9353 12.6204 17.6701C12.6204 17.6701 12.6204 17.6701 12.716 17.6701C13.3853 17.6701 13.9589 17.3821 14.437 16.9979L17.114 14.309C17.5921 13.8288 17.8789 13.1566 17.7833 12.5804C19.4086 11.8121 21.1296 11.3319 22.9462 11.3319C24.8584 11.3319 26.6749 11.8121 28.3959 12.6764C28.3959 13.2526 28.5871 13.9248 29.0652 14.405L31.7422 17.0939C32.2203 17.5741 32.7939 17.7662 33.4632 17.7662C33.4632 17.7662 33.4632 17.7662 33.5588 17.7662C35.1841 21.0313 35.1841 24.8726 33.5588 28.2338H33.4632C32.7939 28.2338 32.2203 28.5219 31.7422 28.9061L29.0652 31.595C28.5871 32.0752 28.3959 32.6514 28.3959 33.3236C28.3003 33.3236 28.3003 33.3236 28.3003 33.4196ZM9.46528 40.7182C9.27407 40.9102 8.98725 41.0063 8.70042 41.0063C8.4136 41.0063 8.12675 40.9102 7.93553 40.7182L5.25849 38.0292C4.87605 37.6451 4.87605 36.9729 5.25849 36.5887L11.8555 29.9624L11.9511 29.8664C12.1423 29.6743 12.4292 29.5783 12.716 29.5783C13.0028 29.5783 13.2897 29.6743 13.4809 29.8664L16.1579 32.5553C16.5404 32.9395 16.5404 33.6117 16.1579 33.9958L16.0623 34.0919L9.84772 40.334L9.46528 40.7182ZM5.3541 7.87474L8.03115 5.1858C8.22237 4.99373 8.50921 4.89771 8.79604 4.89771C9.08287 4.89771 9.36968 4.99373 9.5609 5.1858L10.0389 5.66597L16.1579 11.8121C16.3491 12.0042 16.4448 12.2923 16.4448 12.5804C16.4448 12.5804 16.4448 12.5804 16.4448 12.6764C16.4448 12.7724 16.4448 12.8685 16.3492 12.9645C16.2535 13.0605 16.2535 13.1566 16.1579 13.3486L13.4809 16.0376C13.3853 16.1336 13.2897 16.2296 13.0984 16.2296C13.0028 16.3257 12.8116 16.3257 12.716 16.3257C12.4292 16.3257 12.238 16.2297 12.0467 16.0376L5.92777 9.89144L5.44972 9.41128C4.97167 8.93111 4.97167 8.3549 5.3541 7.87474ZM31.9334 3.36117C32.3159 3.55324 32.6027 3.64927 32.9851 3.84134C33.272 4.0334 33.5588 4.12944 33.8456 4.3215C34.0368 4.41754 34.2281 4.51356 34.5149 4.70563C34.8017 4.8977 35.1841 5.08978 35.471 5.37788L35.5666 5.4739L29.5432 11.524C29.4476 11.62 29.4476 11.7161 29.352 11.8121C27.3442 10.6597 25.1452 10.0835 22.9462 10.0835C20.7472 10.0835 18.6438 10.6597 16.7316 11.7161C16.7316 11.62 16.636 11.62 16.636 11.524L10.6126 5.4739C10.7082 5.37787 10.8038 5.37787 10.8038 5.28184C11.0906 5.08977 11.3775 4.8977 11.6643 4.70563C11.9511 4.51356 12.1423 4.41753 12.4292 4.22546C12.716 4.12943 12.9072 3.93737 13.194 3.84134C13.5765 3.64927 13.9589 3.4572 14.3414 3.26513C14.437 3.1691 14.6282 3.1691 14.7238 3.07307C17.4008 1.92067 20.2691 1.34446 23.1374 1.34446C26.0057 1.34446 28.8739 1.92067 31.551 3.07307C31.6466 3.1691 31.8378 3.26514 31.9334 3.36117ZM40.8251 9.41128L40.2514 9.98747L34.1325 16.1336C34.1325 16.1336 34.1324 16.1336 34.0368 16.1336C33.8456 16.3257 33.5588 16.4217 33.3676 16.4217C33.272 16.4217 33.0807 16.4217 32.9851 16.3257C32.8895 16.2296 32.7939 16.2296 32.6027 16.1336L29.9256 13.4447C29.83 13.3486 29.7344 13.2526 29.7344 13.1566C29.7344 13.0605 29.6388 12.9645 29.6388 12.8685V12.7724C29.6388 12.4843 29.7344 12.2923 29.9256 12.1002C29.9256 12.1002 29.9256 12.0042 30.0212 12.0042L36.1402 5.85804L36.7139 5.28184C36.9051 5.08977 37.1919 4.99373 37.4788 4.99373C37.7656 4.99373 38.0524 5.08977 38.2436 5.28184L40.9207 7.97078C41.2075 8.35491 41.2075 9.02714 40.8251 9.41128ZM5.44972 10.4676L11.4731 16.5178C11.5687 16.6138 11.5687 16.6138 11.6643 16.6138C9.4653 20.5511 9.4653 25.3528 11.5687 29.2902C11.5687 29.2902 11.4731 29.2902 11.4731 29.3862L5.3541 35.5324C0.191212 28.0418 0.191218 17.9582 5.44972 10.4676ZM10.4214 40.6221L16.5404 34.476C16.5404 34.476 16.5404 34.3799 16.636 34.3799C18.6438 35.4363 20.8428 36.0125 23.0418 36.0125C25.2408 36.0125 27.4398 35.4363 29.4476 34.2839C29.4476 34.2839 29.4476 34.3799 29.5432 34.3799L35.6622 40.5261C31.9334 43.215 27.4398 44.5595 23.0418 44.5595C18.6438 44.6555 14.2457 43.3111 10.4214 40.6221Z" fill="#E5E5E5"/>
</svg>
