<svg width="141" height="54" viewBox="0 0 141 54" fill="none" xmlns="http://www.w3.org/2000/svg">
<path d="M22 8.9759L22.0654 9L31 0L22 8.9759Z" fill="#2F60DD"/>
<path d="M38 9.13598L30.9125 0L22 9.15723L32.2557 13L38 9.13598Z" fill="#2F60DD"/>
<path d="M41 12.0182L39.6631 10.32L33.313 14.572L21.6472 10L20 11.6875L33.5549 17L41 12.0182Z" fill="#2F60DD"/>
<path d="M42 14.7164L40.7111 13.0426L32.5814 18.6061L18.5881 13L17 14.6632L32.8214 21L42 14.7164Z" fill="#2F60DD"/>
<path d="M44 16.6142L42.7005 15L32.4808 21.6912L15.6011 15.222L14 16.8261L32.7189 24L44 16.6142Z" fill="#2F60DD"/>
<path d="M46 19.719L44.6929 18L32.3807 26.5372L12.6105 18.5207L11 20.2289L32.6164 29L46 19.719Z" fill="#2F60DD"/>
<path d="M48 21.6627L46.6871 20L32.2725 29.6219L9.61766 20.7698L8 22.4221L32.5123 32L48 21.6627Z" fill="#2F60DD"/>
<path d="M51 24.6173L49.6825 23L33.1663 33.6868L7.62327 24.0124L6 25.6196L33.4077 36L51 24.6173Z" fill="#2F60DD"/>
<path d="M53 27.6932L51.6789 26L33.0593 38.5775L4.62778 27.3358L3 29.0184L33.3022 41L53 27.6932Z" fill="#2F60DD"/>
<path d="M32.3534 41.635L1.60183 29.5735L0 31.216L32.5916 44L54 29.6529L52.6999 28L32.3534 41.635Z" fill="#2F60DD"/>
<path d="M68.875 10.229C68.0968 9.8872 67.3399 9.50063 66.6083 9.07133C66.3316 8.89828 66.0942 8.67164 65.9104 8.40536C65.7603 8.16206 65.6842 7.88192 65.6911 7.59779C65.6833 7.36953 65.728 7.14248 65.8218 6.93337C65.9156 6.72426 66.0562 6.53842 66.2331 6.38955C66.6768 6.05306 67.2308 5.88703 67.7909 5.92275C68.3763 5.92503 68.9592 5.99713 69.5268 6.13748C70.2881 6.3384 71.0342 6.59135 71.7594 6.89448L72.9134 4.17146C72.1043 3.82398 71.2692 3.53788 70.4153 3.31566C69.5957 3.10945 68.7524 3.00695 67.9062 3.01068C66.3999 2.92385 64.9118 3.36855 63.712 4.26405C63.2078 4.6871 62.809 5.21732 62.5461 5.81423C62.2831 6.41114 62.1629 7.05897 62.1947 7.70827C62.1783 8.4125 62.3368 9.11012 62.6565 9.74119C62.9648 10.3219 63.3837 10.8396 63.8908 11.2661C64.5992 11.8189 65.3787 12.2782 66.2093 12.6323C66.9607 12.9634 67.6916 13.3375 68.3981 13.7526C68.7115 13.9461 68.9869 14.193 69.2112 14.4816C69.3959 14.7332 69.4932 15.0362 69.4886 15.3459C69.5045 15.5984 69.4552 15.8507 69.3454 16.0797C69.2355 16.3086 69.0686 16.5069 68.8599 16.6561C68.3188 16.9817 67.6881 17.1355 67.0541 17.0964C66.3226 17.0859 65.5955 16.9834 64.8907 16.7915C63.9005 16.516 62.934 16.1648 62 15.7412V18.994C63.4932 19.6797 65.1277 20.0196 66.7767 19.9875C68.4073 20.083 70.0219 19.6286 71.3516 18.6999C71.8902 18.2812 72.3199 17.7436 72.6057 17.1313C72.8915 16.5189 73.0253 15.849 72.9961 15.1763C73.0283 14.1965 72.7201 13.2349 72.1218 12.4486C71.2205 11.4829 70.1116 10.7249 68.875 10.229Z" fill="#2F60DD"/>
<path d="M81.0011 9.99976L77.6809 3H74L79.3131 13.5V20H82.6869V13.3839L88 3H84.341L81.0011 9.99976Z" fill="#2F60DD"/>
<path d="M103.308 12.4359C102.753 11.7129 101.963 11.2325 101.089 11.0879V10.9718C101.451 10.914 101.797 10.7803 102.108 10.5786C102.419 10.377 102.688 10.1116 102.899 9.79833C103.376 9.06442 103.615 8.18812 103.579 7.30009C103.624 6.65835 103.503 6.01579 103.23 5.44007C102.956 4.86434 102.54 4.37674 102.025 4.0286C100.989 3.34287 99.3242 3 97.0298 3H92V19.989H98.051C99.5969 20.0783 101.127 19.62 102.395 18.6875C102.92 18.2631 103.339 17.7119 103.618 17.0807C103.897 16.4496 104.026 15.7571 103.995 15.0622C104.037 14.1323 103.797 13.2125 103.308 12.4359ZM95.501 17.6293V11.994L101.089 15.0966L95.501 17.6293Z" fill="#2F60DD"/>
<path d="M108 3H111V20H108V3Z" fill="#2F60DD"/>
<path d="M121.002 9.99976L117.682 3H114L119.313 13.5V20H122.687V13.3839L128 3H124.341L121.002 9.99976Z" fill="#2F60DD"/>
<path d="M140.121 12.4492C139.221 11.484 138.114 10.7261 136.879 10.23C136.1 9.88827 135.343 9.50164 134.612 9.07216C134.335 8.89911 134.098 8.67243 133.914 8.4061C133.764 8.16277 133.688 7.88259 133.694 7.59842C133.687 7.37014 133.732 7.1431 133.825 6.93398C133.919 6.72485 134.06 6.53898 134.237 6.39001C134.68 6.05393 135.234 5.88793 135.794 5.92315C136.38 5.92541 136.963 5.99753 137.531 6.13791C138.292 6.33888 139.038 6.59187 139.763 6.89501L140.917 4.17162C140.108 3.8241 139.273 3.53795 138.419 3.3157C137.599 3.10945 136.756 3.00694 135.909 3.01068C134.403 2.92384 132.914 3.3686 131.714 4.26422C131.21 4.68737 130.812 5.21767 130.549 5.81465C130.286 6.41164 130.165 7.05953 130.197 7.70891C130.181 8.41324 130.339 9.11095 130.659 9.74211C130.967 10.3231 131.386 10.8408 131.893 11.2672C132.602 11.8201 133.381 12.2795 134.212 12.6336C134.962 12.9642 135.693 13.3376 136.399 13.7517C136.712 13.9452 136.987 14.1922 137.212 14.4808C137.396 14.7325 137.493 15.0356 137.488 15.3453C137.504 15.5978 137.455 15.8502 137.345 16.0792C137.235 16.3082 137.068 16.5064 136.86 16.6556C136.318 16.9813 135.688 17.1351 135.054 17.096C134.322 17.0854 133.595 16.9828 132.89 16.791C131.9 16.5155 130.934 16.1643 130 15.7406V18.9938C131.493 19.6796 133.128 20.0196 134.777 19.9875C136.408 20.0831 138.023 19.6286 139.352 18.6997C139.891 18.2809 140.32 17.7433 140.606 17.1308C140.892 16.5183 141.025 15.8483 140.996 15.1757C141.028 14.1961 140.719 13.235 140.121 12.4492Z" fill="#2F60DD"/>
<path d="M64.65 32.9271C64.65 36.4929 66.8786 39.2043 71.2057 39.2043C72.7286 39.2043 73.8986 38.9071 74.4186 38.6657L73.9914 36.4371C73.4343 36.66 72.4871 36.8457 71.6329 36.8457C69.1071 36.8457 67.6214 35.2671 67.6214 32.76C67.6214 29.9743 69.3857 28.6186 71.6143 28.6186C72.6171 28.6186 73.4157 28.8414 73.9729 29.0829L74.5671 26.8543C74.0843 26.5757 72.9514 26.2971 71.4843 26.2971C67.6957 26.2971 64.65 28.6557 64.65 32.9271ZM76.2706 39H79.0749V34.0786H79.9106C81.0806 34.0971 81.6192 34.5243 81.9535 36.0843C82.3064 37.6443 82.6221 38.6471 82.8264 39H85.7235C85.4821 38.5171 85.0921 36.8829 84.7021 35.4714C84.4049 34.32 83.9221 33.4843 83.0306 33.1314V33.0757C84.1078 32.6857 85.2406 31.59 85.2406 29.9929C85.2406 28.8414 84.8321 27.9686 84.0892 27.3743C83.1978 26.6686 81.8978 26.39 80.0406 26.39C78.5364 26.39 77.1806 26.5014 76.2706 26.65V39ZM79.0749 32.0357V28.5814C79.2792 28.5443 79.6878 28.4886 80.3564 28.4886C81.6378 28.5071 82.4364 29.1014 82.4364 30.2343C82.4364 31.33 81.6006 32.0357 80.1892 32.0357H79.0749ZM87.0116 39H89.6302L89.853 34.2643C89.9459 32.6857 90.0202 30.7729 90.0573 29.0643H90.113C90.4102 30.7171 90.8373 32.4814 91.2273 33.9671L92.5459 38.7957H94.793L96.3159 33.9486C96.7616 32.4814 97.3187 30.6614 97.7087 29.0643H97.7645C97.7459 30.8843 97.8202 32.7043 97.8759 34.2271L98.0616 39H100.81L100.16 26.4829H96.4459L95.1087 30.6429C94.6816 32.0357 94.2545 33.7443 93.9387 35.1929H93.8645C93.5859 33.7257 93.2145 32.11 92.8059 30.6614L91.5802 26.4829H87.8102L87.0116 39Z" fill="#2F60DD"/>
</svg>
