<svg width="139" height="46" viewBox="0 0 139 46" fill="none" xmlns="http://www.w3.org/2000/svg">
<g clip-path="url(#clip0_107_762)">
<path d="M21.8858 12.4602C21.8858 6.67485 18.2245 3.21409 11.5059 3.21409H0.0223696V33.4041H6.5322V21.796H12.0279C15.3238 21.796 17.792 20.8692 19.4176 18.993C21.0215 17.1989 21.899 14.8691 21.8784 12.4602H21.8858ZM1.15581 42.5979H3.04239V41.8056H0V45.827H1.14836V42.5979H1.15581ZM12.7139 43.0838C12.7139 42.2989 12.2367 41.8056 11.2226 41.8056H9.52985V45.827H10.7006V44.332H11.3195C11.5099 44.346 11.701 44.3199 11.8808 44.2556C12.0606 44.1912 12.2249 44.09 12.3634 43.9583C12.4817 43.8382 12.5749 43.6958 12.6377 43.5392C12.7004 43.3826 12.7314 43.2151 12.7288 43.0464L12.7139 43.0838ZM11.0361 42.5979C11.1049 42.5905 11.1744 42.5988 11.2394 42.6223C11.3045 42.6458 11.3633 42.6839 11.4115 42.7336C11.4597 42.7833 11.4959 42.8434 11.5174 42.9093C11.5389 42.9751 11.5452 43.045 11.5357 43.1137C11.5436 43.1794 11.5369 43.2461 11.516 43.3089C11.4952 43.3717 11.4607 43.4291 11.4151 43.477C11.3694 43.5249 11.3138 43.562 11.2522 43.5858C11.1905 43.6096 11.1244 43.6194 11.0585 43.6145H10.7006V42.5979H11.0361ZM19.8278 41.8505H18.6794L20.1708 44.9898C20.2304 45.1094 20.0291 45.1767 19.8949 45.1767C19.7318 45.1713 19.5696 45.1513 19.4102 45.1169L19.261 45.8643C19.5616 45.9518 19.8727 45.9971 20.1857 45.9989C20.4032 46.0091 20.6182 45.9483 20.7984 45.8257C20.9785 45.7031 21.1142 45.5252 21.1849 45.3187L22.6315 41.8056H21.513L21.0283 43.0987L20.7599 43.8462H20.7151L19.8278 41.7832V41.8505ZM32.6013 41.8505H28.9624V45.8718H30.0884V42.5979H31.4082V45.8195H32.5715V41.8056L32.6013 41.8505ZM42.9589 41.8505H39.32V45.8718H40.4758V42.5979H41.7956V45.8195H42.9589V41.8056V41.8505ZM53.4507 45.8718L52.1084 41.8505H50.6618L49.2525 45.8718H50.3859L50.6469 45.0496H52.0264L52.2725 45.8718H53.4507ZM51.5715 43.4575L51.8102 44.3021H50.8855L51.1241 43.4874L51.3404 42.5979L51.5343 43.4276L51.5715 43.4575ZM65.3742 43.7416C65.5065 43.6736 65.6224 43.5775 65.7138 43.4601C65.8053 43.3426 65.87 43.2065 65.9036 43.0614L66.2243 41.8654H65.1356L64.8597 42.882C64.841 43.0254 64.7677 43.1561 64.6551 43.2466C64.5425 43.3372 64.3994 43.3806 64.2557 43.3678H63.9201V41.8505H62.7494V45.8569H63.8828V44.1377H64.2557C64.4004 44.1281 64.5436 44.1724 64.6578 44.262C64.772 44.3517 64.8492 44.4804 64.8746 44.6236L65.2101 45.827H66.3809L65.9931 44.4442C65.9727 44.2719 65.9026 44.1094 65.7913 43.9766C65.6801 43.8438 65.5325 43.7465 65.3667 43.6967L65.3742 43.7416ZM76.7981 43.8462C76.8204 43.302 76.6396 42.769 76.291 42.3513C75.8809 41.9835 75.3499 41.7803 74.7996 41.7803C74.2494 41.7803 73.7184 41.9835 73.3083 42.3513C72.9775 42.7862 72.7983 43.318 72.7983 43.8649C72.7983 44.4118 72.9775 44.9436 73.3083 45.3785C73.5033 45.5721 73.7371 45.7221 73.9941 45.8187C74.2511 45.9153 74.5257 45.9564 74.7996 45.9391C75.0749 45.9569 75.3508 45.9146 75.6083 45.8153C75.8657 45.7159 76.0987 45.5618 76.291 45.3635C76.6502 44.9506 76.8395 44.4162 76.8204 43.8686L76.7981 43.8462ZM75.5677 43.8462C75.5677 44.6908 75.3067 45.1169 74.7847 45.1169C74.2627 45.1169 73.9794 44.6908 73.9794 43.8537C73.9794 43.0165 74.2478 42.568 74.7847 42.568C75.3216 42.568 75.5677 43.0614 75.5677 43.8462ZM86.999 45.8643H88.125V41.8056H86.7082L86.1489 43.1884L85.7761 44.1751H85.7239L85.3884 43.2482L84.844 41.8056H83.3526V45.827H84.5234V43.4575L84.8589 44.3395L85.284 45.4159H86.1862L86.6113 44.3918L86.9767 43.465V45.827L86.999 45.8643ZM98.4229 41.843H94.784V45.8643H95.9398V42.5979H97.2597V45.8195H98.4229V41.8056V41.843ZM108.915 45.8643L107.572 41.843H106.148L104.739 45.8643H105.872L106.133 45.0421H107.513L107.759 45.8643H108.915ZM107.028 43.45L107.267 44.2947H106.342L106.581 43.4799L106.797 42.6204L106.991 43.45H107.028ZM118.467 41.8505H117.333V43.3454H115.991V42.5979C115.991 42.2541 115.991 42 115.991 41.8505H114.835V45.8643H115.991C115.991 45.6775 115.991 45.4009 115.991 45.0272V44.1377H117.333V45.827H118.497V41.8131L118.467 41.8505ZM126.55 43.7042L126.2 44.2722V43.024C126.2 42.4783 126.2 42.0822 126.2 41.8131H125.051V45.827H126.2L126.737 44.9674L127.646 43.4725V45.812H128.772V41.8131H127.646L126.528 43.6668L126.55 43.7042ZM136.445 43.7042L136.095 44.2722V43.024C136.095 42.4783 136.095 42.0822 136.095 41.8131H134.932V45.827H136.08L136.617 44.9674L137.527 43.4725V45.812H138.653V41.8131H137.527L136.408 43.6668L136.445 43.7042ZM136.729 41.5066C136.995 41.4861 137.252 41.3977 137.475 41.2499C137.699 41.1022 137.88 40.8998 138.004 40.662L137.676 40.3705C137.518 40.5149 137.345 40.6426 137.161 40.7517C137.105 40.7832 137.045 40.8059 136.982 40.819C136.906 40.8321 136.828 40.8321 136.751 40.819C136.589 40.7964 136.433 40.7386 136.295 40.6495C136.157 40.5604 136.041 40.4422 135.953 40.3032L135.536 40.6172C135.644 40.8491 135.81 41.0492 136.017 41.1985C136.225 41.3477 136.467 41.4409 136.721 41.4693L136.729 41.5066ZM10.5813 7.77362C13.4447 7.77362 15.6146 9.30592 15.6146 12.5948C15.6146 15.8836 13.3776 17.371 10.7975 17.371H6.5322V7.77362H10.5813ZM37.2544 7.90816H44.8156L45.0915 3.22157H22.721V7.90816H30.7819V33.3742H37.2022L37.247 7.90816H37.2544ZM69.1921 3.22157H50.0951L49.5657 11.9519C49.5284 12.5948 49.5135 13.0507 49.4762 13.6636C48.8573 24.9727 48.2682 27.5365 42.0641 29.9509L43.8015 34.7944C46.3967 34.3559 48.8187 33.2016 50.796 31.4607C54.3977 28.3887 55.3223 19.6209 55.5684 14.8446L55.7847 10.5467L55.9189 7.78857H62.6748L62.7195 33.3892H69.1846V3.21409L69.1921 3.22157ZM92.2561 18.9183C92.2561 13.6113 89.2734 11.4437 83.7628 11.4437C80.5493 11.3981 77.3602 12.0085 74.3895 13.2376L74.0539 13.3871L75.3962 17.1244C77.6091 16.3908 79.9257 16.0198 82.2565 16.0256C85.2914 16.0256 86.2608 17.1393 86.2608 19.7629V20.2862L83.2781 20.4655L80.2953 20.6375C75.5751 20.9215 72.3687 23.291 72.3687 27.544C72.3687 30.0405 73.7333 33.8152 79.0799 33.8152C81.8114 33.8868 84.471 32.9323 86.5367 31.1393L86.6262 31.229C86.6933 32.7239 86.8872 33.3742 89.3778 33.3742H92.2561V18.9033V18.9183ZM86.2906 27.8879C84.8365 29.1585 82.0328 29.8163 80.5339 29.8163C78.5579 29.8163 77.5512 28.8969 77.5512 27.0582C77.5512 25.2194 78.5579 24.2477 80.5861 24.1206L86.2533 23.7693V27.8879H86.2906ZM106.096 3.81954C100.876 5.81526 97.722 9.17885 96.596 13.5366C96.1486 15.2483 95.8951 18.268 95.8951 22.5061C95.8951 28.426 98.3111 33.7704 106.543 33.7704C110.272 33.7704 113.061 32.7165 114.858 30.6609C116.703 28.5073 117.676 25.7394 117.587 22.9023C117.587 16.3694 114.768 12.2958 108.303 12.2958C107 12.2453 105.702 12.5048 104.518 13.053C103.333 13.6013 102.295 14.4226 101.488 15.4501C101.439 15.4022 101.376 15.3709 101.309 15.3604C102.233 12.1164 103.262 11.1223 105.783 9.65723C106.715 9.11905 107.513 8.67805 108.162 8.38654C108.81 8.09503 109.862 7.63908 111.144 7.11585C114.724 5.54618 115.618 3.68499 113.956 0C112.238 1.1196 110.43 2.09225 108.549 2.90763L106.126 3.82701L106.096 3.81954ZM106.894 16.4367C109.713 16.4367 111.114 18.5819 111.114 22.9247C111.114 27.2675 109.623 29.3753 106.715 29.3678C102.852 29.3678 102.181 26.2584 102.181 23.1415C102.151 21.5129 102.561 19.9066 103.367 18.4922C103.705 17.8544 104.215 17.3239 104.838 16.9608C105.461 16.5976 106.173 16.4161 106.894 16.4367ZM126.759 22.5734C126.759 18.5446 128.653 16.1751 132.128 16.1751C133.717 16.1678 135.299 16.374 136.833 16.788C137.474 16.646 138.951 14.0374 138.802 13.0507C138.757 12.7741 138.384 12.6321 137.803 12.3855C135.641 11.6557 133.372 11.2993 131.091 11.3315C126.908 11.3315 123.888 12.8265 122.427 15.2333C121.041 17.5157 120.34 20.1492 120.406 22.8201C120.406 28.7998 122.561 33.6882 130.845 33.6882C133.644 33.7793 136.424 33.2056 138.958 32.0139C138.958 30.8927 137.512 28.1868 135.148 28.5905C134.098 28.7967 133.033 28.9167 131.964 28.9493C128.235 28.9493 126.744 26.7592 126.744 22.5958L126.759 22.5734Z" fill="white"/>
</g>
<defs>
<clipPath id="clip0_107_762">
<rect width="139" height="46" fill="white"/>
</clipPath>
</defs>
</svg>
