<svg width="56" height="50" viewBox="0 0 56 50" fill="none" xmlns="http://www.w3.org/2000/svg">
<path d="M25.0781 16.6611L25.1018 23.549C25.0781 23.7351 25.0781 23.9213 25.0781 24.1074V29.8318H25.1018V38.1158C25.1018 38.6976 25.4094 39 26.0481 39H30.0464C30.6379 39 30.9454 38.6976 30.9454 38.1158V30.111H46.2763C48.0979 30.111 49.6358 29.9714 50.8897 29.6689C52.1436 29.3663 53.1373 28.901 53.8944 28.2494C54.6514 27.5979 55.1956 26.7602 55.5031 25.7131C55.8343 24.6891 56 23.4326 56 21.9899V16.2422C56 14.7995 55.8343 13.5662 55.5031 12.5191C55.1719 11.4952 54.6278 10.6343 53.8944 9.98271C53.1373 9.33115 52.1436 8.84249 50.8897 8.53999C49.6358 8.23748 48.0979 8.07459 46.2763 8.07459H34.8255C32.9802 8.07459 31.4187 8.2142 30.1884 8.53999C30.1648 8.53999 30.1648 8.53999 30.1411 8.53999C31.1348 9.42423 31.8682 10.5645 32.294 11.9374C32.436 12.3562 32.5543 12.8216 32.6252 13.3336C32.8145 13.2637 33.0038 13.1939 33.2167 13.1241C33.7845 12.9845 34.5179 12.8914 35.3696 12.8914H45.6611C46.5602 12.8914 47.2936 12.9613 47.8614 13.1241C48.4292 13.2637 48.8787 13.5198 49.2336 13.8455C49.5649 14.1713 49.8014 14.6366 49.9433 15.2184C50.0853 15.8001 50.1563 16.4982 50.1563 17.3359V20.9195C50.1563 21.7804 50.0853 22.4786 49.9433 23.0603C49.8014 23.6188 49.5649 24.0841 49.2336 24.4332C48.9024 24.7823 48.4292 25.0149 47.8614 25.1546C47.2936 25.2942 46.5602 25.364 45.6611 25.364H30.8745V18.9416V16.2422C30.8745 14.7995 30.7089 13.5662 30.3776 12.5191C30.0464 11.4952 29.5023 10.6343 28.7689 9.98271C28.5323 9.77328 28.2721 9.58712 27.9645 9.40096C27.3493 9.02865 26.6159 8.72614 25.7642 8.53999C24.5103 8.23748 22.9726 8.07459 21.1508 8.07459H5.84368V0.88425C5.84368 0.302507 5.53612 0 4.94465 0H0.946345C0.307562 0 0 0.302507 0 0.88425V22.0364C0 23.4792 0.165611 24.7125 0.496831 25.7595C0.828052 26.7835 1.34854 27.6444 2.10562 28.2959C2.86269 28.9476 3.85636 29.4362 5.08661 29.7154C6.31685 30.0179 7.87832 30.1575 9.72369 30.1575H21.1745C21.8606 30.1575 22.4993 30.1343 23.1145 30.0877V25.0149C23.0198 25.0382 22.9252 25.0848 22.807 25.108C22.2392 25.2476 21.5056 25.3174 20.6066 25.3174H10.2915C9.41613 25.3174 8.70638 25.2476 8.1149 25.108C7.5471 24.9684 7.07393 24.7125 6.74271 24.3866C6.41148 24.0609 6.1749 23.5955 6.03295 23.0371C5.891 22.4786 5.82002 21.7572 5.82002 20.8962V12.9147H20.583C21.482 12.9147 22.2154 12.9845 22.7832 13.1474C23.351 13.287 23.8005 13.543 24.1555 13.8687C24.4867 14.1945 24.7233 14.6599 24.8652 15.2416C24.9835 15.6373 25.0545 16.1026 25.0781 16.6611Z" fill="#E5E5E5"/>
<path d="M7.43558 43.2972C7.23927 43.1455 6.99386 43.0371 6.65031 42.9721C6.33129 42.9071 5.93865 42.8638 5.44785 42.8638H1.49694V41.1951C1.49694 41.065 1.42332 41 1.27608 41H0.245399C0.07362 41 0 41.065 0 41.1951V46.1146C0 46.4614 0.0490796 46.743 0.1227 46.9815C0.19632 47.2199 0.343559 47.4149 0.539877 47.5666C0.736194 47.7183 0.981597 47.8266 1.30061 47.8916C1.61963 47.9566 2.01227 48 2.50306 48H5.4724C5.93865 48 6.33129 47.9566 6.67485 47.8916C6.99386 47.8266 7.2638 47.7183 7.46013 47.5666C7.65644 47.4149 7.80368 47.2199 7.8773 46.9815C7.95092 46.743 8 46.4614 8 46.1146V44.7276C8 44.3809 7.95092 44.0991 7.8773 43.8607C7.77914 43.644 7.6319 43.449 7.43558 43.2972ZM6.47852 45.8111C6.47852 46.0062 6.45399 46.1796 6.42945 46.3096C6.40491 46.4396 6.33129 46.548 6.23313 46.613C6.13497 46.6997 6.03681 46.743 5.88957 46.7864C5.74233 46.8297 5.54602 46.8297 5.32516 46.8297H2.6503C2.42944 46.8297 2.23313 46.8081 2.08589 46.7864C1.93865 46.743 1.81595 46.6997 1.74233 46.613C1.64418 46.5264 1.59509 46.4396 1.54601 46.3096C1.52147 46.1796 1.49694 46.0062 1.49694 45.8111V43.9474H5.30061C5.52147 43.9474 5.71779 43.9691 5.86503 43.9907C6.01227 44.0341 6.13497 44.0774 6.20859 44.1641C6.30675 44.2508 6.35583 44.3375 6.40491 44.4892C6.42945 44.6192 6.45399 44.7926 6.45399 44.9876V45.8111H6.47852Z" fill="#E5E5E5"/>
<path d="M13.8268 43H11.2078C10.7749 43 10.4285 43.0423 10.1472 43.1059C9.86579 43.1695 9.6277 43.2754 9.47619 43.4237C9.30304 43.572 9.17317 43.7627 9.10823 43.9957C9.0433 44.2288 9 44.5042 9 44.8432V47.8094C9 47.9365 9.06494 48 9.21645 48H10.1255C10.2554 48 10.3204 47.9365 10.3204 47.8094V45.0975C10.3204 44.9067 10.342 44.7585 10.3636 44.6101C10.3853 44.483 10.4503 44.3771 10.5368 44.2924C10.6234 44.2076 10.71 44.1652 10.8398 44.1229C10.9696 44.0805 11.1429 44.0805 11.3376 44.0805H13.8268C13.935 44.0805 14 44.017 14 43.911V43.1482C14 43.0635 13.935 43 13.8268 43Z" fill="#E5E5E5"/>
<path d="M22.4373 43.4237C22.2416 43.2754 21.9969 43.1695 21.6544 43.1059C21.3364 43.0423 20.9449 43 20.4557 43H17.4954C17.0062 43 16.6147 43.0423 16.2967 43.1059C15.9786 43.1695 15.7095 43.2754 15.5383 43.4237C15.3425 43.572 15.1957 43.7627 15.1223 43.9957C15.0489 44.2288 15 44.5042 15 44.8432V46.1568C15 46.4958 15.0489 46.7711 15.1223 47.0043C15.1957 47.2373 15.3425 47.428 15.5383 47.5763C15.7339 47.7246 15.9786 47.8305 16.2967 47.8941C16.6147 47.9576 17.0062 48 17.4954 48H20.4801C20.9449 48 21.3364 47.9576 21.6789 47.8941C21.9969 47.8305 22.2661 47.7246 22.4617 47.5763C22.6575 47.428 22.8043 47.2373 22.8777 47.0043C22.9511 46.7711 23 46.4958 23 46.1568V44.822C23 44.483 22.9511 44.2076 22.8777 43.9746C22.7553 43.7627 22.6331 43.572 22.4373 43.4237ZM21.4832 45.9237C21.4832 46.1144 21.4588 46.2839 21.4343 46.411C21.4098 46.5381 21.3364 46.6441 21.2385 46.7076C21.1407 46.7924 21.0428 46.8348 20.896 46.8771C20.7493 46.9195 20.5536 46.9195 20.3333 46.9195H17.6422C17.422 46.9195 17.2263 46.8983 17.0795 46.8771C16.9327 46.8348 16.8104 46.7924 16.737 46.7076C16.6391 46.6229 16.5902 46.5381 16.5412 46.411C16.5168 46.2839 16.4923 46.1144 16.4923 45.9237V45.0551C16.4923 44.8644 16.5168 44.7161 16.5412 44.589C16.5658 44.4619 16.6391 44.3559 16.737 44.2712C16.8348 44.1865 16.9327 44.1441 17.0795 44.1017C17.2263 44.0805 17.422 44.0593 17.6422 44.0593H20.3333C20.5536 44.0593 20.7493 44.0805 20.896 44.1017C21.0428 44.1229 21.1652 44.1865 21.2385 44.2712C21.3364 44.3559 21.3853 44.4619 21.4343 44.589C21.4588 44.7161 21.4832 44.8644 21.4832 45.0551V45.9237Z" fill="#E5E5E5"/>
<path d="M29.5743 45.9845C29.3696 45.7244 29.142 45.5294 28.869 45.3776C29.0738 45.226 29.2786 45.0309 29.4834 44.7709L30.7575 43.1239C30.803 43.0588 30.8258 42.9938 30.803 42.9505C30.7802 42.9071 30.7348 42.8638 30.6665 42.8638H29.5516C29.4834 42.8638 29.4151 42.8854 29.3696 42.9071C29.3241 42.9288 29.2786 42.9721 29.2558 43.0371L28.1637 44.5108C28.0955 44.5975 28.0272 44.6625 27.9817 44.7059C27.9362 44.7492 27.8679 44.7925 27.7997 44.8142C27.7314 44.8359 27.6404 44.8575 27.5494 44.8792C27.4584 44.8792 27.3446 44.9009 27.2081 44.9009H25.3879V41.195C25.3879 41.065 25.3197 41 25.1832 41H24.2276C24.0682 41 24 41.065 24 41.195V47.8049C24 47.935 24.0682 48 24.2276 48H25.1832C25.3197 48 25.3879 47.935 25.3879 47.8049V45.9195H27.2764C27.5494 45.9195 27.7541 45.9411 27.8679 46.0061C28.0044 46.0711 28.1182 46.1579 28.2547 46.3096L29.4607 47.8699C29.5061 47.9133 29.5289 47.9566 29.5743 47.9783C29.6199 48 29.6654 48 29.7564 48H30.8485C30.9168 48 30.9623 47.9783 30.9851 47.9133C31.0078 47.8699 31.0078 47.8049 30.9623 47.7616L29.5743 45.9845Z" fill="#E5E5E5"/>
<path d="M38.6523 43.339C38.5132 43.2118 38.351 43.1271 38.1191 43.0847C37.8874 43.0423 37.6093 43 37.2847 43H34.3642C33.9006 43 33.5298 43.0423 33.2284 43.1059C32.9271 43.1695 32.6721 43.2754 32.5099 43.4237C32.3245 43.572 32.1854 43.7627 32.1158 43.9957C32.0463 44.2288 32 44.5042 32 44.8432V46.1567C32 46.4957 32.0463 46.7712 32.1158 47.0042C32.1854 47.2373 32.3245 47.428 32.5099 47.5763C32.6954 47.7246 32.9271 47.8305 33.2284 47.8941C33.5298 47.9576 33.9006 48 34.3642 48H38.6754C38.7913 48 38.8609 47.9365 38.8609 47.8305V47.0678C38.8609 46.9619 38.7913 46.8983 38.6754 46.8983H34.5033C34.0628 46.8983 33.7847 46.8347 33.6225 46.7076C33.4834 46.5805 33.3907 46.3686 33.3907 46.0932V45.8814H38.4204C38.6059 45.8814 38.745 45.839 38.8609 45.7754C38.9536 45.6906 39 45.5635 39 45.3729V44.5042C39 44.2288 38.9767 43.9957 38.9304 43.8051C38.8841 43.6144 38.7913 43.4449 38.6523 43.339ZM37.6093 44.928C37.6093 45.0339 37.5628 45.0762 37.447 45.0762H33.4139V44.822C33.4139 44.5254 33.4834 44.3135 33.6456 44.2076C33.7847 44.0805 34.0861 44.017 34.5265 44.017H37.0298C37.2615 44.017 37.4238 44.0593 37.5165 44.1441C37.6093 44.2288 37.6556 44.3559 37.6556 44.5466V44.928H37.6093Z" fill="#E5E5E5"/>
<path d="M55.8083 43H42.4431C41.9641 43 41.5808 43.0423 41.2695 43.1059C40.9581 43.1695 40.6946 43.2754 40.527 43.4237C40.3353 43.572 40.1916 43.7627 40.1198 43.9957C40.0479 44.2288 40 44.5042 40 44.8432V47.8094C40 47.9365 40.0719 48 40.2396 48H41.2455C41.3893 48 41.4611 47.9365 41.4611 47.8094V45.0975C41.4611 44.9067 41.485 44.7585 41.509 44.6101C41.533 44.483 41.6048 44.3771 41.7006 44.2924C41.7965 44.2076 41.8922 44.1652 42.0359 44.1229C42.1796 44.0805 42.3712 44.0805 42.5868 44.0805H55.8083C55.9281 44.0805 56 44.017 56 43.911V43.1482C56 43.0635 55.9281 43 55.8083 43Z" fill="#E5E5E5"/>
<path d="M47.75 46.2431C47.6591 46.1547 47.5228 46.0884 47.3636 46.0663C47.2045 46.0221 47 46 46.7727 46H45.2727C45.0227 46 44.8409 46.0221 44.6591 46.0663C44.5 46.1105 44.3637 46.1768 44.2727 46.2431C44.1818 46.3315 44.1137 46.442 44.0681 46.5746C44.0227 46.7072 44 46.8619 44 47.0608V49.8895C44 49.9558 44.0454 50 44.1137 50H44.6364C44.7045 50 44.75 49.9558 44.75 49.8895V48.8508H46.75C46.9773 48.8508 47.1818 48.8287 47.3409 48.7845C47.5 48.7403 47.6363 48.6961 47.7273 48.6077C47.8182 48.5194 47.8863 48.4088 47.9319 48.2763C47.9773 48.1436 48 47.989 48 47.79V47.0387C48 46.8619 47.9773 46.6851 47.9319 46.5524C47.9091 46.442 47.8409 46.3315 47.75 46.2431ZM47.2728 47.6574C47.2728 47.7679 47.2728 47.8563 47.25 47.9227C47.2272 47.989 47.2045 48.0553 47.1591 48.0995C47.1137 48.1436 47.0454 48.1658 46.9773 48.1878C46.9091 48.2099 46.8181 48.2099 46.6818 48.2099H44.7728V47.1713C44.7728 47.0608 44.7728 46.9723 44.7955 46.906C44.8182 46.8397 44.8409 46.7735 44.8863 46.7292C44.9318 46.6851 45 46.663 45.0682 46.6409C45.1363 46.6188 45.2273 46.6187 45.3409 46.6187H46.6818C46.7954 46.6187 46.8864 46.6188 46.9773 46.6409C47.0454 46.663 47.1137 46.6851 47.1591 46.7292C47.2045 46.7735 47.2272 46.8397 47.25 46.906C47.2728 46.9723 47.2728 47.0608 47.2728 47.1713V47.6574Z" fill="#E5E5E5"/>
<path d="M50.9167 46H49.3388C49.0758 46 48.8846 46.0232 48.6933 46.0698C48.526 46.1163 48.3826 46.186 48.2869 46.2558C48.1912 46.3489 48.1196 46.4652 48.0717 46.6047C48.0239 46.7442 48 46.907 48 47.1163V48.8838C48 48.9536 48.0478 49 48.1196 49H48.6694C48.7411 49 48.7889 48.9536 48.7889 48.8838V47.2558C48.7889 47.1395 48.7889 47.0465 48.8129 46.9768C48.8368 46.907 48.8607 46.8373 48.9085 46.7907C48.9563 46.7442 49.028 46.721 49.0998 46.6977C49.1715 46.6744 49.2671 46.6744 49.3866 46.6744H50.8689C50.9406 46.6744 50.9645 46.6512 50.9645 46.5814V46.1163C51.0363 46.0232 50.9885 46 50.9167 46Z" fill="#E5E5E5"/>
<path d="M55.7288 46.2538C55.6384 46.1616 55.5028 46.0924 55.3446 46.0692C55.1864 46.023 54.983 46 54.7571 46H53.2655C53.0169 46 52.8362 46.023 52.6553 46.0692C52.4971 46.1154 52.3615 46.1846 52.2711 46.2538C52.1808 46.3462 52.1129 46.4616 52.0677 46.6C52.0226 46.7385 52 46.9 52 47.1077V47.8923C52 48.0769 52.0226 48.2615 52.0677 48.4C52.1129 48.5384 52.1808 48.6538 52.2711 48.7462C52.3615 48.8384 52.4971 48.9076 52.6553 48.9308C52.8135 48.9769 53.0169 49 53.2655 49H54.7571C54.983 49 55.1864 48.9769 55.3446 48.9308C55.5028 48.8846 55.6384 48.8384 55.7288 48.7462C55.8191 48.6538 55.887 48.5384 55.9322 48.4C55.9774 48.2615 56 48.1 56 47.8923V47.1077C56 46.9231 55.9774 46.7385 55.9322 46.6C55.887 46.4616 55.8191 46.3462 55.7288 46.2538ZM55.2542 47.7307C55.2542 47.8461 55.2542 47.9385 55.2316 48.0077C55.209 48.0769 55.1864 48.1461 55.1413 48.1923C55.096 48.2384 55.0283 48.2615 54.9604 48.2846C54.8927 48.3076 54.8022 48.3077 54.6666 48.3077H53.3107C53.1977 48.3077 53.1073 48.3076 53.0395 48.2846C52.9717 48.2615 52.9039 48.2384 52.8587 48.1923C52.8135 48.1461 52.7909 48.0769 52.7683 48.0077C52.7457 47.9385 52.7457 47.8461 52.7457 47.7307V47.2231C52.7457 47.1077 52.7457 47.0154 52.7683 46.9461C52.7909 46.8769 52.8135 46.8077 52.8587 46.7615C52.9039 46.7154 52.9717 46.6923 53.0395 46.6692C53.1073 46.6462 53.1977 46.6462 53.3107 46.6462H54.6666C54.7796 46.6462 54.8701 46.6462 54.9604 46.6692C55.0283 46.6923 55.096 46.7154 55.1413 46.7615C55.1864 46.8077 55.209 46.8769 55.2316 46.9461C55.2542 47.0154 55.2542 47.1077 55.2542 47.2231V47.7307Z" fill="#E5E5E5"/>
</svg>
